<?xml version="1.0" standalone="no"?>
<!DOCTYPE svg PUBLIC "-//W3C//DTD SVG 20010904//EN"
 "http://www.w3.org/TR/2001/REC-SVG-20010904/DTD/svg10.dtd">
<svg version="1.0" xmlns="http://www.w3.org/2000/svg"
 width="500.000000pt" height="500.000000pt" viewBox="0 0 500.000000 500.000000"
 preserveAspectRatio="xMidYMid meet">
<metadata>
Created by potrace 1.16, written by Peter Selinger 2001-2019
</metadata>
<g transform="translate(0.000000,500.000000) scale(0.100000,-0.100000)"
fill="#000000" stroke="none">
<path d="M166 4833 c-3 -3 -6 -406 -6 -895 l0 -888 680 0 680 0 0 165 0 165
-480 0 -480 0 0 220 0 220 430 0 430 0 0 150 0 150 -430 0 -430 0 0 190 0 190
443 2 c243 1 454 2 470 2 l27 1 0 167 0 167 -664 0 c-365 0 -666 -2 -670 -6z"/>
<path d="M1682 4831 c-5 -3 41 -157 100 -341 60 -184 168 -515 239 -735 72
-220 153 -469 180 -552 l51 -153 221 0 222 0 296 889 c192 574 293 891 285
894 -6 2 -97 5 -203 6 l-192 2 -19 -63 c-62 -203 -376 -1174 -381 -1181 -4 -4
-21 37 -38 90 -17 54 -102 321 -188 593 -87 272 -162 510 -167 528 l-9 33
-194 -2 c-107 -1 -198 -5 -203 -8z"/>
<path d="M3798 4827 c-8 -7 -40 -79 -71 -162 -31 -82 -115 -305 -187 -495 -72
-190 -158 -415 -190 -500 -32 -85 -97 -256 -144 -380 -47 -124 -86 -228 -86
-232 0 -5 89 -8 198 -8 l197 0 70 198 70 197 331 3 332 2 68 -200 69 -200 203
0 c111 0 202 4 202 8 0 4 -82 228 -183 497 -101 270 -248 663 -327 875 -79
212 -148 390 -153 397 -6 9 -62 12 -197 12 -131 0 -192 -4 -202 -12z m412
-1074 c0 -10 -51 -13 -225 -13 -124 0 -225 2 -225 5 0 2 9 28 19 57 11 29 59
163 107 298 47 135 91 256 96 270 9 22 25 -18 119 -290 59 -173 108 -321 109
-327z"/>
<path d="M830 2950 c-132 -23 -229 -77 -340 -189 -65 -65 -95 -105 -123 -162
-68 -139 -67 -115 -67 -1105 0 -855 1 -894 20 -968 30 -119 72 -189 175 -291
102 -103 172 -145 291 -175 71 -18 112 -20 481 -20 337 0 416 3 476 16 185 42
358 183 442 359 62 132 60 94 60 1090 l0 910 -24 75 c-55 178 -190 333 -356
411 -114 54 -168 59 -598 58 -216 -1 -412 -5 -437 -9z m599 -357 c66 -34 123
-104 147 -179 l16 -50 -229 -410 c-127 -225 -270 -481 -319 -569 l-89 -159 -3
569 c-2 398 1 582 9 611 14 52 72 130 126 167 91 65 239 73 342 20z m163
-1390 c-2 -325 -7 -584 -13 -605 -13 -52 -67 -127 -117 -165 -106 -80 -282
-84 -392 -8 -48 33 -84 87 -104 155 l-16 54 292 520 c161 287 303 542 317 568
14 26 28 48 31 48 3 0 4 -255 2 -567z"/>
<path d="M3616 2798 l-325 -163 -1 -162 0 -163 165 0 165 0 0 -1135 0 -1135
325 0 325 0 0 1429 c0 786 -3 1443 -6 1460 l-6 31 -159 0 -158 0 -325 -162z"/>
</g>
</svg>
